<svg xmlns="http://www.w3.org/2000/svg" width="376.867" height="134.893" viewBox="0 0 282.65 101.17" class="displayed_equation">
  <path d="M 1031.367188 124.004687 L 1795.117188 124.004687 L 1795.117188 887.754687 L 1031.367188 887.754687 Z M 1031.367188 124.004687" transform="matrix(.1 0 0 -.1 0 101.17)" fill="#62aadf" stroke-width="7.97" stroke-linecap="round" stroke-linejoin="round" stroke="#000" stroke-miterlimit="10" />
  <path d="M 1031.367188 314.942187 L 508.515625 314.942187" transform="matrix(.1 0 0 -.1 0 101.17)" fill="none" stroke-width="7.97" stroke-linecap="round" stroke-linejoin="round" stroke="#000" stroke-miterlimit="10" />
  <path d="M 46.988281 69.675781 L 52.457031 71.742188 L 50.652344 69.675781 L 52.457031 67.613281" />
  <path d="M 469.882813 314.942187 L 524.570313 294.278125 L 506.523438 314.942187 L 524.570313 335.567187 Z M 469.882813 314.942187" transform="matrix(.1 0 0 -.1 0 101.17)" fill="none" stroke-width="7.97" stroke-linecap="round" stroke="#000" stroke-miterlimit="10" />
  <path d="M 1031.367188 696.817187 L 508.515625 696.817187" transform="matrix(.1 0 0 -.1 0 101.17)" fill="none" stroke-width="7.97" stroke-linecap="round" stroke-linejoin="round" stroke="#000" stroke-miterlimit="10" />
  <path d="M 46.988281 31.488281 L 52.457031 33.550781 L 50.652344 31.488281 L 52.457031 29.425781" />
  <path d="M 469.882813 696.817187 L 524.570313 676.192187 L 506.523438 696.817187 L 524.570313 717.442187 Z M 469.882813 696.817187" transform="matrix(.1 0 0 -.1 0 101.17)" fill="none" stroke-width="7.97" stroke-linecap="round" stroke="#000" stroke-miterlimit="10" />
  <path d="M 1795.117188 505.879687 L 2317.96875 505.879687" transform="matrix(.1 0 0 -.1 0 101.17)" fill="none" stroke-width="7.97" stroke-linecap="round" stroke-linejoin="round" stroke="#000" stroke-miterlimit="10" />
  <path d="M 235.660156 50.582031 L 230.191406 48.519531 L 231.996094 50.582031 L 230.191406 52.644531" />
  <path d="M 2356.601563 505.879687 L 2301.914063 526.504687 L 2319.960938 505.879687 L 2301.914063 485.254687 Z M 2356.601563 505.879687" transform="matrix(.1 0 0 -.1 0 101.17)" fill="none" stroke-width="7.97" stroke-linecap="round" stroke="#000" stroke-miterlimit="10" />
  <path d="M16.660156 67.714844C17.039063 67.125 17.453125 66.8125 18.121094 66.8125 18.8125 66.8125 19.257813 67.191406 19.257813 67.847656 19.257813 68.75 18.46875 69.367188 17.707031 69.367188L17.496094 69.367188 17.496094 69.789063 17.71875 69.789063C18.789063 69.789063 19.738281 70.449219 19.738281 71.441406 19.738281 72.535156 19.058594 72.859375 18.355469 72.859375 18.085938 72.859375 17.929688 72.8125 17.453125 72.566406 17.0625 72.367188 16.972656 72.3125 16.792969 72.3125 16.503906 72.3125 16.359375 72.566406 16.359375 72.800781 16.359375 73.09375 16.601563 73.414063 17.609375 73.414063 19.234375 73.414063 20.652344 72.632813 20.652344 71.105469 20.652344 70.113281 19.90625 69.523438 19.015625 69.242188L19.015625 69.210938C19.714844 68.761719 20.21875 68.351563 20.21875 67.582031 20.21875 66.734375 19.558594 66.085938 18.421875 66.085938 17.507813 66.085938 16.816406 66.597656 16.402344 67.570313L16.660156 67.714844M26.523438 69.734375C26.523438 67.4375 25.515625 66.109375 24.078125 66.109375 22.460938 66.109375 21.601563 67.582031 21.601563 69.699219 21.601563 71.675781 22.257813 73.394531 24.054688 73.394531 25.808594 73.394531 26.523438 71.640625 26.523438 69.734375zM25.4375 69.800781C25.4375 71.941406 24.9375 72.992188 24.054688 72.992188 23.164063 72.992188 22.671875 71.921875 22.671875 69.757813 22.671875 67.546875 23.164063 66.488281 24.042969 66.488281 24.960938 66.488281 25.4375 67.535156 25.4375 69.800781M37.476563 65.941406L34.84375 65.941406 34.84375 66.273438C35.3125 66.273438 35.511719 66.34375 35.691406 66.554688 35.859375 66.742188 35.902344 67.046875 35.902344 67.714844L35.902344 71.328125 35.847656 71.328125 31.71875 65.941406 29.824219 65.941406 29.824219 66.273438C30.324219 66.273438 30.515625 66.386719 30.871094 66.84375L30.871094 71.609375C30.871094 72.734375 30.703125 72.9375 29.824219 72.9375L29.824219 73.269531 32.433594 73.269531 32.433594 72.9375C31.597656 72.9375 31.417969 72.722656 31.417969 71.609375L31.417969 67.390625 31.476563 67.390625 36.09375 73.359375 36.460938 73.359375 36.460938 67.769531C36.460938 66.96875 36.574219 66.65625 36.75 66.5 36.917969 66.34375 37.074219 66.273438 37.476563 66.273438L37.476563 65.941406M16.660156 29.515625C17.039063 28.921875 17.453125 28.609375 18.121094 28.609375 18.8125 28.609375 19.257813 28.992188 19.257813 29.648438 19.257813 30.550781 18.46875 31.164063 17.707031 31.164063L17.496094 31.164063 17.496094 31.589844 17.71875 31.589844C18.789063 31.589844 19.738281 32.25 19.738281 33.242188 19.738281 34.335938 19.058594 34.65625 18.355469 34.65625 18.085938 34.65625 17.929688 34.613281 17.453125 34.367188 17.0625 34.167969 16.972656 34.109375 16.792969 34.109375 16.503906 34.109375 16.359375 34.367188 16.359375 34.601563 16.359375 34.890625 16.601563 35.214844 17.609375 35.214844 19.234375 35.214844 20.652344 34.433594 20.652344 32.90625 20.652344 31.914063 19.90625 31.320313 19.015625 31.042969L19.015625 31.007813C19.714844 30.5625 20.21875 30.148438 20.21875 29.382813 20.21875 28.53125 19.558594 27.886719 18.421875 27.886719 17.507813 27.886719 16.816406 28.398438 16.402344 29.367188L16.660156 29.515625M26.523438 31.535156C26.523438 29.234375 25.515625 27.90625 24.078125 27.90625 22.460938 27.90625 21.601563 29.382813 21.601563 31.5 21.601563 33.476563 22.257813 35.195313 24.054688 35.195313 25.808594 35.195313 26.523438 33.441406 26.523438 31.535156zM25.4375 31.601563C25.4375 33.742188 24.9375 34.789063 24.054688 34.789063 23.164063 34.789063 22.671875 33.71875 22.671875 31.554688 22.671875 29.347656 23.164063 28.289063 24.042969 28.289063 24.960938 28.289063 25.4375 29.335938 25.4375 31.601563M37.476563 27.742188L34.84375 27.742188 34.84375 28.074219C35.3125 28.074219 35.511719 28.140625 35.691406 28.355469 35.859375 28.542969 35.902344 28.84375 35.902344 29.515625L35.902344 33.128906 35.847656 33.128906 31.71875 27.742188 29.824219 27.742188 29.824219 28.074219C30.324219 28.074219 30.515625 28.1875 30.871094 28.644531L30.871094 33.40625C30.871094 34.535156 30.703125 34.734375 29.824219 34.734375L29.824219 35.070313 32.433594 35.070313 32.433594 34.734375C31.597656 34.734375 31.417969 34.523438 31.417969 33.40625L31.417969 29.191406 31.476563 29.191406 36.09375 35.160156 36.460938 35.160156 36.460938 29.570313C36.460938 28.765625 36.574219 28.453125 36.75 28.296875 36.917969 28.140625 37.074219 28.074219 37.476563 28.074219L37.476563 27.742188M249.898438 52.496094C249.898438 51.605469 249.496094 51.070313 248.191406 50.277344L248.191406 50.242188C249.226563 49.675781 249.628906 49.304688 249.628906 48.492188 249.628906 47.609375 248.78125 46.953125 247.679688 46.953125 246.449219 46.953125 245.558594 47.585938 245.558594 48.601563 245.558594 49.363281 245.804688 49.820313 246.941406 50.609375L246.941406 50.644531C245.90625 51.335938 245.414063 51.695313 245.414063 52.585938 245.414063 53.722656 246.351563 54.304688 247.644531 54.304688 248.972656 54.304688 249.898438 53.667969 249.898438 52.496094zM248.804688 48.46875C248.804688 49.183594 248.582031 49.617188 247.84375 50.0625 246.851563 49.460938 246.429688 49.0625 246.429688 48.402344 246.429688 47.722656 246.898438 47.320313 247.65625 47.320313 248.371094 47.320313 248.804688 47.734375 248.804688 48.46875zM247.277344 50.824219C248.628906 51.695313 248.960938 52.105469 248.960938 52.820313 248.960938 53.578125 248.382813 53.957031 247.6875 53.957031 246.839844 53.957031 246.28125 53.5 246.28125 52.496094 246.28125 51.726563 246.640625 51.335938 247.277344 50.824219M255.621094 50.632813C255.621094 48.335938 254.617188 47.007813 253.179688 47.007813 251.5625 47.007813 250.703125 48.480469 250.703125 50.601563 250.703125 52.574219 251.359375 54.292969 253.15625 54.292969 254.90625 54.292969 255.621094 52.542969 255.621094 50.632813zM254.539063 50.699219C254.539063 52.84375 254.039063 53.890625 253.15625 53.890625 252.261719 53.890625 251.773438 52.820313 251.773438 50.65625 251.773438 48.445313 252.261719 47.386719 253.144531 47.386719 254.058594 47.386719 254.539063 48.4375 254.539063 50.699219M266.578125 46.839844L263.945313 46.839844 263.945313 47.175781C264.414063 47.175781 264.613281 47.242188 264.792969 47.453125 264.960938 47.644531 265.003906 47.945313 265.003906 48.613281L265.003906 52.230469 264.949219 52.230469 260.820313 46.839844 258.921875 46.839844 258.921875 47.175781C259.425781 47.175781 259.617188 47.289063 259.972656 47.742188L259.972656 52.507813C259.972656 53.632813 259.804688 53.835938 258.921875 53.835938L258.921875 54.171875 261.535156 54.171875 261.535156 53.835938C260.695313 53.835938 260.519531 53.625 260.519531 52.507813L260.519531 48.289063 260.574219 48.289063 265.195313 54.257813 265.5625 54.257813 265.5625 48.671875C265.5625 47.867188 265.671875 47.554688 265.851563 47.398438 266.019531 47.242188 266.175781 47.175781 266.578125 47.175781L266.578125 46.839844" />
</svg>